{"asset":{"version":"2.0","extras":{"author":"Quaternius","license":"CC0-1.0","source":"https://quaternius.com/packs/ultimateanimatedanimals.html","originalSha256":"cc02e9d128b5715f352ee8bea086f97a35f1d875d240de99b0f9f2775c37d415"}},"nodes":[{"name":"Head","translation":[3.742060372506628e-13,0.33700913190841675,-3.2418989803773e-7],"rotation":[-0.2896977663040161,7.767841481154392e-9,4.6016370447432564e-7,0.9571182131767273],"scale":[1,0.9999998807907104,1]},{"name":"Ear4.L","translation":[-2.7743573127736454e-7,0.09376678615808487,2.0613910578504147e-7],"rotation":[-0.10216370224952698,-0.0322609469294548,-0.08977317810058594,0.9901831150054932],"scale":[1,1.0000001192092896,1]},{"name":"Ear3.L","translation":[8.77109656016728e-8,0.08098988980054855,6.472136959700947e-8],"rotation":[0.001325709279626608,-0.01796138472855091,-0.035847052931785583,0.9991950392723083],"scale":[0.9999998211860657,0.9999998211860657,0.9999999403953552],"children":[1]},{"name":"Ear2.L","translation":[-1.0934751060176495e-7,0.1388622671365738,-2.5941034209608915e-7],"rotation":[-0.07329442352056503,0.489658385515213,0.04942082613706589,0.867421567440033],"scale":[0.9999998211860657,0.9999998807907104,0.9999999403953552],"children":[2]},{"name":"Ear1.L","translation":[-0.22781039774417877,0.42022761702537537,0.1650601327419281],"rotation":[0.43575602769851685,-0.02652951516211033,0.10636037588119507,0.8933646082878113],"scale":[0.9999999403953552,0.9999999403953552,0.9999999403953552],"children":[3]},{"name":"Ear4.R","translation":[-2.568421848536673e-7,0.0937676951289177,-3.4177208618757504e-8],"rotation":[-0.10216371715068817,0.032260965555906296,0.08977314829826355,0.9901831150054932],"scale":[0.9999999403953552,1.0000001192092896,1]},{"name":"Ear3.R","translation":[-4.437021416947573e-8,0.08098988234996796,-2.109214136680748e-9],"rotation":[0.0013256990350782871,0.017961442470550537,0.03584715723991394,0.9991949796676636],"scale":[0.9999999403953552,0.9999998807907104,0.9999999403953552],"children":[5]},{"name":"Ear2.R","translation":[-7.285467518158839e-8,0.13886186480522156,2.587063647752075e-7],"rotation":[-0.07329436391592026,-0.489658385515213,-0.04942075163125992,0.867421567440033],"scale":[0.9999998211860657,1,1],"children":[6]},{"name":"Ear1.R","translation":[0.22781100869178772,0.4202275276184082,0.16505944728851318],"rotation":[0.4357559382915497,0.02653099037706852,-0.10636112838983536,0.893364667892456],"scale":[0.9999999403953552,1,0.9999999403953552],"children":[7]},{"name":"Neck3","translation":[7.721119343927565e-14,0.1815168261528015,-1.0963260166363398e-7],"rotation":[-0.019889933988451958,-1.1316829073848567e-7,6.9509509259546576e-9,0.9998022317886353],"scale":[1,1.0000001192092896,1.0000001192092896],"children":[0,4,8]},{"name":"Neck2","translation":[2.5383888784327735e-13,0.2657741904258728,6.8627477034510775e-9],"rotation":[0.028796447440981865,3.307465945567856e-8,-5.744921427464078e-9,0.9995853304862976],"children":[9]},{"name":"Neck1","translation":[4.5408772228472394e-13,0.29481619596481323,-1.178241930688273e-7],"rotation":[0.0762205645442009,0.000002403839516773587,-3.008730402598303e-7,0.9970909953117371],"children":[10]},{"name":"Torso3","translation":[-1.920786620035475e-11,0.5849334597587585,-1.0334095890129902e-7],"rotation":[0.10591404139995575,0.000020923926058458164,-0.0000028945112262590555,0.9943753480911255],"children":[11]},{"name":"FrontLowerLeg.L","translation":[8.740897072812004e-8,0.3595564067363739,-7.415373204366915e-8],"rotation":[-5.561667535403103e-7,0.9644415974617004,-0.2642960250377655,0.0000021412790829344885],"scale":[1,0.9999996423721313,0.9999995827674866]},{"name":"FrontUpperLeg.L","translation":[4.033883840293129e-7,0.10450869053602219,-9.811234491508003e-9],"rotation":[-0.7390084266662598,-0.656123697757721,0.08288466185331345,0.12844644486904144],"scale":[1.000000238418579,1.0000003576278687,1.0000003576278687],"children":[13]},{"name":"FrontShoulder.L","translation":[-0.22307977080345154,0.7070834636688232,-0.37175142765045166],"rotation":[-0.45090141892433167,0.5135039687156677,0.548591673374176,0.48171448707580566],"scale":[0.9999999403953552,0.9999998211860657,1],"children":[14]},{"name":"FrontLowerLeg.R","translation":[8.584333954786416e-8,0.3595558702945709,1.940695426583261e-8],"rotation":[-5.042090265305887e-7,-0.9644405245780945,0.2642999589443207,0.0000021397174805315444],"scale":[1,1.0000005960464478,0.9999998807907104]},{"name":"FrontUpperLeg.R","translation":[2.6125606567006798e-8,0.10450863093137741,1.1879434680395207e-7],"rotation":[-0.7390080690383911,0.6561234593391418,-0.08288638293743134,0.1284484565258026],"scale":[1.0000003576278687,1.000001072883606,0.9999999403953552],"children":[16]},{"name":"FrontShoulder.R","translation":[0.22304382920265198,0.7070834636688232,-0.37177297472953796],"rotation":[-0.45092788338661194,-0.5134807229042053,-0.5485697984695435,0.48173922300338745],"scale":[1,0.9999998807907104,0.9999999403953552],"children":[17]},{"name":"Torso2","translation":[-2.1438587016753274e-11,0.3900519907474518,-3.91155481338501e-8],"rotation":[-0.005965903867036104,-0.000020692725229309872,1.6409505576575611e-7,0.9999822974205017],"children":[12,15,18]},{"name":"Torso","translation":[2.2448709557920665e-13,0.5209779143333435,-4.842877388000488e-8],"rotation":[-3.3391467013643705e-7,0.9975399374961853,-0.070100337266922,0.000002215800805061008],"scale":[1,1.0000001192092896,0.9999999403953552],"children":[19]},{"name":"BackLowerLeg.L","translation":[-7.548389646672149e-8,1.0181670188903809,2.0266043065930717e-7],"rotation":[-4.01850769549128e-7,0.772424042224884,-0.635107159614563,7.319925998672261e-7],"scale":[1.0000001192092896,1.0000001192092896,1.0000003576278687]},{"name":"BackUpperLeg.L","translation":[-8.361162429082469e-8,0.49066632986068726,7.39423313689258e-8],"rotation":[0.7018139958381653,-9.31348793642428e-8,2.0354097785002523e-7,0.7123602032661438],"scale":[1,0.9999998807907104,1],"children":[21]},{"name":"BackLeg.L","translation":[-1.973796770471381e-7,0.12765337526798248,1.3028891032718093e-7],"rotation":[0.7186679840087891,0.6462615728378296,0.17160218954086304,0.19082720577716827],"scale":[0.9999997019767761,0.9999991059303284,0.9999995827674866],"children":[22]},{"name":"BackShoulder.L","translation":[0.21449969708919525,0.07522478699684143,0.22570191323757172],"rotation":[-0.5694243311882019,-0.521260142326355,-0.4213862717151642,0.47589659690856934],"scale":[1.0000001192092896,0.9999994039535522,1.0000003576278687],"children":[23]},{"name":"BackLowerLeg.R","translation":[-4.245494622523438e-8,1.0181671380996704,-1.1303662716954932e-7],"rotation":[-4.2828082769119646e-7,-0.7724234461784363,0.6351078748703003,6.992582370912714e-7],"scale":[1,1.0000001192092896,1]},{"name":"BackUpperLeg.R","translation":[3.6597405994598375e-8,0.4906664788722992,1.5799404451399823e-8],"rotation":[0.7018147110939026,1.3230558693066996e-7,-2.893985140417499e-7,0.712359607219696],"scale":[0.9999999403953552,0.9999997615814209,1],"children":[25]},{"name":"BackLeg.R","translation":[1.1293290924641042e-7,0.1276533007621765,4.851132384686707e-9],"rotation":[0.7186680436134338,-0.6462615132331848,-0.1716020554304123,0.19082729518413544],"scale":[0.9999997615814209,1.0000005960464478,0.9999997019767761],"children":[26]},{"name":"BackShoulder.R","translation":[-0.21449853479862213,0.07522478699684143,0.22570300102233887],"rotation":[-0.569423258304596,0.5212610960006714,0.421387642621994,0.47589561343193054],"scale":[1.0000004768371582,1,1.000000238418579],"children":[27]},{"name":"Tail8","translation":[-2.886579864025407e-15,0.26265865564346313,1.1920928955078125e-7],"rotation":[0.1955207884311676,1.1564407742525873e-7,-1.4238275447553406e-8,0.9806995391845703]},{"name":"Tail7","translation":[-3.639311074721263e-12,0.2181660532951355,8.940696716308594e-8],"rotation":[0.06431542336940765,-7.261390100321563e-11,1.1566227975379206e-9,0.9979296326637268],"scale":[1,1.0000001192092896,1],"children":[29]},{"name":"Tail6","translation":[1.8651033408673134e-12,0.2953348457813263,-1.980573074433778e-7],"rotation":[0.16469435393810272,-1.2026991669245035e-7,9.582911353334111e-9,0.9863446950912476],"children":[30]},{"name":"Tail5","translation":[5.615225014024387e-14,0.23953452706336975,2.9547561553044943e-7],"rotation":[0.17735546827316284,1.209213280617405e-7,-2.8820430486575788e-8,0.9841468930244446],"children":[31]},{"name":"Tail4","translation":[-5.2891488389571195e-14,0.35762912034988403,-1.7484070724549383e-7],"rotation":[0.008162187412381172,-0.0000047824082685110625,-0.00000470550958198146,0.9999666810035706],"scale":[1,0.9999999403953552,0.9999999403953552],"children":[32]},{"name":"Tail3","translation":[-4.440892098500626e-15,0.3501648008823395,-7.82310962677002e-8],"rotation":[-0.026616059243679047,-8.959291641907896e-10,2.3220747991103963e-8,0.9996458292007446],"children":[33]},{"name":"Tail2","translation":[-1.4384779378393518e-14,0.1972024291753769,8.302879450639011e-8],"rotation":[-0.6080694198608398,-3.090125488824924e-8,-3.1194698379977126e-8,0.7938839197158813],"scale":[1,0.9999999403953552,0.9999998807907104],"children":[34]},{"name":"Tail1","translation":[3.667041994503961e-7,-0.14503726363182068,0.14642423391342163],"rotation":[-0.9785727262496948,2.392827980202128e-7,0.0000013484067267199862,0.20590154826641083],"scale":[1,0.9999999403953552,0.999998927116394],"children":[35]},{"name":"Back","translation":[-2.0896200325637437e-9,1.5116289854049683,-0.6388041377067566],"rotation":[0.7724030613899231,-7.98055282302812e-7,-9.736958190842415e-7,0.6351327300071716],"scale":[1,1.0000001192092896,1.0000001192092896],"children":[20,24,28,36]},{"name":"PoleTargetBack.L","translation":[0.21702849864959717,0.34704968333244324,3.6577651500701904],"rotation":[-3.552713678800501e-15,1.1920928955078125e-7,-8.470328967672024e-22,1],"scale":[1,0.9999999403953552,0.9999999403953552]},{"name":"PoleTarget.L","translation":[0.21728317439556122,0.34900370240211487,3.369708299636841],"rotation":[-3.552713678800501e-15,0,0,1],"scale":[1,0.9999999403953552,0.9999999403953552]},{"name":"PoleTargetBack.R","translation":[-0.21702849864959717,0.34704968333244324,3.6577651500701904],"rotation":[-3.552713678800501e-15,-1.1920928955078125e-7,8.470328967672024e-22,1],"scale":[1,0.9999999403953552,0.9999999403953552]},{"name":"PoleTarget.R","translation":[-0.21728317439556122,0.34900370240211487,3.369708299636841],"rotation":[-3.552713678800501e-15,0,0,1],"scale":[1,0.9999999403953552,0.9999999403953552]},{"name":"Body","translation":[0,0.47243887186050415,0.0009059307049028575],"rotation":[-2.9802322387695312e-8,0,0,1],"scale":[1,0.9999998807907104,0.9999998807907104],"children":[37,38,39,40,41]},{"name":"FFB.L","translation":[-2.544135924154034e-8,0.19661608338356018,3.826222894076636e-8],"rotation":[-5.329331429493323e-7,0.9291375279426575,-0.3697343170642853,7.347187533923716e-7],"scale":[1,0.9999997615814209,1]},{"name":"IKBackLeg.L","translation":[0.341435968875885,0.20386332273483276,-1.0240508317947388],"rotation":[0.918441116809845,-1.288891979811524e-7,-2.992664747125673e-7,0.3955577313899994],"scale":[1,1,1.0000004768371582],"children":[43]},{"name":"FF.L","translation":[-3.6327463703855756e-8,0.18817919492721558,-9.677344081637784e-8],"rotation":[-6.243527650440228e-7,0.9377079606056213,-0.3474244773387909,8.532794026905322e-7],"scale":[1,1.0000001192092896,0.9999999403953552]},{"name":"IKFrontLeg.L","translation":[0.3266940712928772,0.21649129688739777,1.047857642173767],"rotation":[0.9406917095184326,-1.509890381612422e-7,-4.186554178886581e-7,0.33926260471343994],"scale":[1,1,0.9999998807907104],"children":[45]},{"name":"FFB.R","translation":[2.544135924154034e-8,0.19661608338356018,3.826222894076636e-8],"rotation":[-5.329331429493323e-7,-0.9291375279426575,0.3697343170642853,7.347187533923716e-7],"scale":[1,0.9999997615814209,1]},{"name":"IKBackLeg.R","translation":[-0.341435968875885,0.20386332273483276,-1.0240508317947388],"rotation":[0.918441116809845,1.288891979811524e-7,2.992664747125673e-7,0.3955577313899994],"scale":[1,1,1.0000004768371582],"children":[47]},{"name":"FF.R","translation":[3.6327463703855756e-8,0.18817919492721558,-9.677344081637784e-8],"rotation":[-6.243527650440228e-7,-0.9377079606056213,0.3474244773387909,8.532794026905322e-7],"scale":[1,1.0000001192092896,0.9999999403953552]},{"name":"IKFrontLeg.R","translation":[-0.3266940712928772,0.21649129688739777,1.047857642173767],"rotation":[0.9406917095184326,1.509890381612422e-7,4.186554178886581e-7,0.33926260471343994],"scale":[1,1,0.9999998807907104],"children":[49]},{"name":"Wolf"},{"name":"AnimalArmature","children":[51,42,44,46,48,50]}],"scenes":[{"name":"Scene","nodes":[52]}],"scene":0,"animations":[{"channels":[{"sampler":0,"target":{"node":42,"path":"translation"}},{"sampler":1,"target":{"node":42,"path":"rotation"}},{"sampler":2,"target":{"node":42,"path":"scale"}},{"sampler":3,"target":{"node":37,"path":"translation"}},{"sampler":4,"target":{"node":37,"path":"rotation"}},{"sampler":5,"target":{"node":37,"path":"scale"}},{"sampler":6,"target":{"node":20,"path":"translation"}},{"sampler":7,"target":{"node":20,"path":"rotation"}},{"sampler":8,"target":{"node":20,"path":"scale"}},{"sampler":9,"target":{"node":19,"path":"translation"}},{"sampler":10,"target":{"node":19,"path":"rotation"}},{"sampler":11,"target":{"node":19,"path":"scale"}},{"sampler":12,"target":{"node":12,"path":"translation"}},{"sampler":13,"target":{"node":12,"path":"rotation"}},{"sampler":14,"target":{"node":12,"path":"scale"}},{"sampler":15,"target":{"node":11,"path":"translation"}},{"sampler":16,"target":{"node":11,"path":"rotation"}},{"sampler":17,"target":{"node":11,"path":"scale"}},{"sampler":18,"target":{"node":10,"path":"translation"}},{"sampler":19,"target":{"node":10,"path":"rotation"}},{"sampler":20,"target":{"node":10,"path":"scale"}},{"sampler":21,"target":{"node":9,"path":"translation"}},{"sampler":22,"target":{"node":9,"path":"rotation"}},{"sampler":23,"target":{"node":9,"path":"scale"}},{"sampler":24,"target":{"node":0,"path":"translation"}},{"sampler":25,"target":{"node":0,"path":"rotation"}},{"sampler":26,"target":{"node":0,"path":"scale"}},{"sampler":27,"target":{"node":4,"path":"translation"}},{"sampler":28,"target":{"node":4,"path":"rotation"}},{"sampler":29,"target":{"node":4,"path":"scale"}},{"sampler":30,"target":{"node":3,"path":"translation"}},{"sampler":31,"target":{"node":3,"path":"rotation"}},{"sampler":32,"target":{"node":3,"path":"scale"}},{"sampler":33,"target":{"node":2,"path":"translation"}},{"sampler":34,"target":{"node":2,"path":"rotation"}},{"sampler":35,"target":{"node":2,"path":"scale"}},{"sampler":36,"target":{"node":1,"path":"translation"}},{"sampler":37,"target":{"node":1,"path":"rotation"}},{"sampler":38,"target":{"node":1,"path":"scale"}},{"sampler":39,"target":{"node":8,"path":"translation"}},{"sampler":40,"target":{"node":8,"path":"rotation"}},{"sampler":41,"target":{"node":8,"path":"scale"}},{"sampler":42,"target":{"node":7,"path":"translation"}},{"sampler":43,"target":{"node":7,"path":"rotation"}},{"sampler":44,"target":{"node":7,"path":"scale"}},{"sampler":45,"target":{"node":6,"path":"translation"}},{"sampler":46,"target":{"node":6,"path":"rotation"}},{"sampler":47,"target":{"node":6,"path":"scale"}},{"sampler":48,"target":{"node":5,"path":"translation"}},{"sampler":49,"target":{"node":5,"path":"rotation"}},{"sampler":50,"target":{"node":5,"path":"scale"}},{"sampler":51,"target":{"node":15,"path":"translation"}},{"sampler":52,"target":{"node":15,"path":"rotation"}},{"sampler":53,"target":{"node":15,"path":"scale"}},{"sampler":54,"target":{"node":14,"path":"translation"}},{"sampler":55,"target":{"node":14,"path":"rotation"}},{"sampler":56,"target":{"node":14,"path":"scale"}},{"sampler":57,"target":{"node":13,"path":"translation"}},{"sampler":58,"target":{"node":13,"path":"rotation"}},{"sampler":59,"target":{"node":13,"path":"scale"}},{"sampler":60,"target":{"node":18,"path":"translation"}},{"sampler":61,"target":{"node":18,"path":"rotation"}},{"sampler":62,"target":{"node":18,"path":"scale"}},{"sampler":63,"target":{"node":17,"path":"translation"}},{"sampler":64,"target":{"node":17,"path":"rotation"}},{"sampler":65,"target":{"node":17,"path":"scale"}},{"sampler":66,"target":{"node":16,"path":"translation"}},{"sampler":67,"target":{"node":16,"path":"rotation"}},{"sampler":68,"target":{"node":16,"path":"scale"}},{"sampler":69,"target":{"node":24,"path":"translation"}},{"sampler":70,"target":{"node":24,"path":"rotation"}},{"sampler":71,"target":{"node":24,"path":"scale"}},{"sampler":72,"target":{"node":23,"path":"translation"}},{"sampler":73,"target":{"node":23,"path":"rotation"}},{"sampler":74,"target":{"node":23,"path":"scale"}},{"sampler":75,"target":{"node":22,"path":"translation"}},{"sampler":76,"target":{"node":22,"path":"rotation"}},{"sampler":77,"target":{"node":22,"path":"scale"}},{"sampler":78,"target":{"node":21,"path":"translation"}},{"sampler":79,"target":{"node":21,"path":"rotation"}},{"sampler":80,"target":{"node":21,"path":"scale"}},{"sampler":81,"target":{"node":28,"path":"translation"}},{"sampler":82,"target":{"node":28,"path":"rotation"}},{"sampler":83,"target":{"node":28,"path":"scale"}},{"sampler":84,"target":{"node":27,"path":"translation"}},{"sampler":85,"target":{"node":27,"path":"rotation"}},{"sampler":86,"target":{"node":27,"path":"scale"}},{"sampler":87,"target":{"node":26,"path":"translation"}},{"sampler":88,"target":{"node":26,"path":"rotation"}},{"sampler":89,"target":{"node":26,"path":"scale"}},{"sampler":90,"target":{"node":25,"path":"translation"}},{"sampler":91,"target":{"node":25,"path":"rotation"}},{"sampler":92,"target":{"node":25,"path":"scale"}},{"sampler":93,"target":{"node":36,"path":"translation"}},{"sampler":94,"target":{"node":36,"path":"rotation"}},{"sampler":95,"target":{"node":36,"path":"scale"}},{"sampler":96,"target":{"node":35,"path":"translation"}},{"sampler":97,"target":{"node":35,"path":"rotation"}},{"sampler":98,"target":{"node":35,"path":"scale"}},{"sampler":99,"target":{"node":34,"path":"translation"}},{"sampler":100,"target":{"node":34,"path":"rotation"}},{"sampler":101,"target":{"node":34,"path":"scale"}},{"sampler":102,"target":{"node":33,"path":"translation"}},{"sampler":103,"target":{"node":33,"path":"rotation"}},{"sampler":104,"target":{"node":33,"path":"scale"}},{"sampler":105,"target":{"node":32,"path":"translation"}},{"sampler":106,"target":{"node":32,"path":"rotation"}},{"sampler":107,"target":{"node":32,"path":"scale"}},{"sampler":108,"target":{"node":31,"path":"translation"}},{"sampler":109,"target":{"node":31,"path":"rotation"}},{"sampler":110,"target":{"node":31,"path":"scale"}},{"sampler":111,"target":{"node":30,"path":"translation"}},{"sampler":112,"target":{"node":30,"path":"rotation"}},{"sampler":113,"target":{"node":30,"path":"scale"}},{"sampler":114,"target":{"node":29,"path":"translation"}},{"sampler":115,"target":{"node":29,"path":"rotation"}},{"sampler":116,"target":{"node":29,"path":"scale"}},{"sampler":117,"target":{"node":38,"path":"translation"}},{"sampler":118,"target":{"node":38,"path":"rotation"}},{"sampler":119,"target":{"node":38,"path":"scale"}},{"sampler":120,"target":{"node":39,"path":"translation"}},{"sampler":121,"target":{"node":39,"path":"rotation"}},{"sampler":122,"target":{"node":39,"path":"scale"}},{"sampler":123,"target":{"node":40,"path":"translation"}},{"sampler":124,"target":{"node":40,"path":"rotation"}},{"sampler":125,"target":{"node":40,"path":"scale"}},{"sampler":126,"target":{"node":41,"path":"translation"}},{"sampler":127,"target":{"node":41,"path":"rotation"}},{"sampler":128,"target":{"node":41,"path":"scale"}},{"sampler":129,"target":{"node":44,"path":"translation"}},{"sampler":130,"target":{"node":44,"path":"rotation"}},{"sampler":131,"target":{"node":44,"path":"scale"}},{"sampler":132,"target":{"node":43,"path":"translation"}},{"sampler":133,"target":{"node":43,"path":"rotation"}},{"sampler":134,"target":{"node":43,"path":"scale"}},{"sampler":135,"target":{"node":46,"path":"translation"}},{"sampler":136,"target":{"node":46,"path":"rotation"}},{"sampler":137,"target":{"node":46,"path":"scale"}},{"sampler":138,"target":{"node":45,"path":"translation"}},{"sampler":139,"target":{"node":45,"path":"rotation"}},{"sampler":140,"target":{"node":45,"path":"scale"}},{"sampler":141,"target":{"node":48,"path":"translation"}},{"sampler":142,"target":{"node":48,"path":"rotation"}},{"sampler":143,"target":{"node":48,"path":"scale"}},{"sampler":144,"target":{"node":47,"path":"translation"}},{"sampler":145,"target":{"node":47,"path":"rotation"}},{"sampler":146,"target":{"node":47,"path":"scale"}},{"sampler":147,"target":{"node":50,"path":"translation"}},{"sampler":148,"target":{"node":50,"path":"rotation"}},{"sampler":149,"target":{"node":50,"path":"scale"}},{"sampler":150,"target":{"node":49,"path":"translation"}},{"sampler":151,"target":{"node":49,"path":"rotation"}},{"sampler":152,"target":{"node":49,"path":"scale"}}],"name":"Walk","samplers":[{"input":0,"interpolation":"LINEAR","output":1},{"input":0,"interpolation":"LINEAR","output":2},{"input":0,"interpolation":"LINEAR","output":3},{"input":0,"interpolation":"LINEAR","output":4},{"input":0,"interpolation":"LINEAR","output":5},{"input":0,"interpolation":"LINEAR","output":6},{"input":0,"interpolation":"LINEAR","output":7},{"input":0,"interpolation":"LINEAR","output":8},{"input":0,"interpolation":"LINEAR","output":9},{"input":0,"interpolation":"LINEAR","output":10},{"input":0,"interpolation":"LINEAR","output":11},{"input":0,"interpolation":"LINEAR","output":12},{"input":0,"interpolation":"LINEAR","output":13},{"input":0,"interpolation":"LINEAR","output":14},{"input":0,"interpolation":"LINEAR","output":15},{"input":0,"interpolation":"LINEAR","output":16},{"input":0,"interpolation":"LINEAR","output":17},{"input":0,"interpolation":"LINEAR","output":18},{"input":0,"interpolation":"LINEAR","output":19},{"input":0,"interpolation":"LINEAR","output":20},{"input":0,"interpolation":"LINEAR","output":21},{"input":0,"interpolation":"LINEAR","output":22},{"input":0,"interpolation":"LINEAR","output":23},{"input":0,"interpolation":"LINEAR","output":24},{"input":0,"interpolation":"LINEAR","output":25},{"input":0,"interpolation":"LINEAR","output":26},{"input":0,"interpolation":"LINEAR","output":27},{"input":0,"interpolation":"LINEAR","output":28},{"input":0,"interpolation":"LINEAR","output":29},{"input":0,"interpolation":"LINEAR","output":30},{"input":0,"interpolation":"LINEAR","output":31},{"input":0,"interpolation":"LINEAR","output":32},{"input":0,"interpolation":"LINEAR","output":33},{"input":0,"interpolation":"LINEAR","output":34},{"input":0,"interpolation":"LINEAR","output":35},{"input":0,"interpolation":"LINEAR","output":36},{"input":0,"interpolation":"LINEAR","output":37},{"input":0,"interpolation":"LINEAR","output":38},{"input":0,"interpolation":"LINEAR","output":39},{"input":0,"interpolation":"LINEAR","output":40},{"input":0,"interpolation":"LINEAR","output":41},{"input":0,"interpolation":"LINEAR","output":42},{"input":0,"interpolation":"LINEAR","output":43},{"input":0,"interpolation":"LINEAR","output":44},{"input":0,"interpolation":"LINEAR","output":45},{"input":0,"interpolation":"LINEAR","output":46},{"input":0,"interpolation":"LINEAR","output":47},{"input":0,"interpolation":"LINEAR","output":48},{"input":0,"interpolation":"LINEAR","output":49},{"input":0,"interpolation":"LINEAR","output":50},{"input":0,"interpolation":"LINEAR","output":51},{"input":0,"interpolation":"LINEAR","output":52},{"input":0,"interpolation":"LINEAR","output":53},{"input":0,"interpolation":"LINEAR","output":54},{"input":0,"interpolation":"LINEAR","output":55},{"input":0,"interpolation":"LINEAR","output":56},{"input":0,"interpolation":"LINEAR","output":57},{"input":0,"interpolation":"LINEAR","output":58},{"input":0,"interpolation":"LINEAR","output":59},{"input":0,"interpolation":"LINEAR","output":60},{"input":0,"interpolation":"LINEAR","output":61},{"input":0,"interpolation":"LINEAR","output":62},{"input":0,"interpolation":"LINEAR","output":63},{"input":0,"interpolation":"LINEAR","output":64},{"input":0,"interpolation":"LINEAR","output":65},{"input":0,"interpolation":"LINEAR","output":66},{"input":0,"interpolation":"LINEAR","output":67},{"input":0,"interpolation":"LINEAR","output":68},{"input":0,"interpolation":"LINEAR","output":69},{"input":0,"interpolation":"LINEAR","output":70},{"input":0,"interpolation":"LINEAR","output":71},{"input":0,"interpolation":"LINEAR","output":72},{"input":0,"interpolation":"LINEAR","output":73},{"input":0,"interpolation":"LINEAR","output":74},{"input":0,"interpolation":"LINEAR","output":75},{"input":0,"interpolation":"LINEAR","output":76},{"input":0,"interpolation":"LINEAR","output":77},{"input":0,"interpolation":"LINEAR","output":78},{"input":0,"interpolation":"LINEAR","output":79},{"input":0,"interpolation":"LINEAR","output":80},{"input":0,"interpolation":"LINEAR","output":81},{"input":0,"interpolation":"LINEAR","output":82},{"input":0,"interpolation":"LINEAR","output":83},{"input":0,"interpolation":"LINEAR","output":84},{"input":0,"interpolation":"LINEAR","output":85},{"input":0,"interpolation":"LINEAR","output":86},{"input":0,"interpolation":"LINEAR","output":87},{"input":0,"interpolation":"LINEAR","output":88},{"input":0,"interpolation":"LINEAR","output":89},{"input":0,"interpolation":"LINEAR","output":90},{"input":0,"interpolation":"LINEAR","output":91},{"input":0,"interpolation":"LINEAR","output":92},{"input":0,"interpolation":"LINEAR","output":93},{"input":0,"interpolation":"LINEAR","output":94},{"input":0,"interpolation":"LINEAR","output":95},{"input":0,"interpolation":"LINEAR","output":96},{"input":0,"interpolation":"LINEAR","output":97},{"input":0,"interpolation":"LINEAR","output":98},{"input":0,"interpolation":"LINEAR","output":99},{"input":0,"interpolation":"LINEAR","output":100},{"input":0,"interpolation":"LINEAR","output":101},{"input":0,"interpolation":"LINEAR","output":102},{"input":0,"interpolation":"LINEAR","output":103},{"input":0,"interpolation":"LINEAR","output":104},{"input":0,"interpolation":"LINEAR","output":105},{"input":0,"interpolation":"LINEAR","output":106},{"input":0,"interpolation":"LINEAR","output":107},{"input":0,"interpolation":"LINEAR","output":108},{"input":0,"interpolation":"LINEAR","output":109},{"input":0,"interpolation":"LINEAR","output":110},{"input":0,"interpolation":"LINEAR","output":111},{"input":0,"interpolation":"LINEAR","output":112},{"input":0,"interpolation":"LINEAR","output":113},{"input":0,"interpolation":"LINEAR","output":114},{"input":0,"interpolation":"LINEAR","output":115},{"input":0,"interpolation":"LINEAR","output":116},{"input":0,"interpolation":"LINEAR","output":117},{"input":0,"interpolation":"LINEAR","output":118},{"input":0,"interpolation":"LINEAR","output":119},{"input":0,"interpolation":"LINEAR","output":120},{"input":0,"interpolation":"LINEAR","output":121},{"input":0,"interpolation":"LINEAR","output":122},{"input":0,"interpolation":"LINEAR","output":123},{"input":0,"interpolation":"LINEAR","output":124},{"input":0,"interpolation":"LINEAR","output":125},{"input":0,"interpolation":"LINEAR","output":126},{"input":0,"interpolation":"LINEAR","output":127},{"input":0,"interpolation":"LINEAR","output":128},{"input":0,"interpolation":"LINEAR","output":129},{"input":0,"interpolation":"LINEAR","output":130},{"input":0,"interpolation":"LINEAR","output":131},{"input":0,"interpolation":"LINEAR","output":132},{"input":0,"interpolation":"LINEAR","output":133},{"input":0,"interpolation":"LINEAR","output":134},{"input":0,"interpolation":"LINEAR","output":135},{"input":0,"interpolation":"LINEAR","output":136},{"input":0,"interpolation":"LINEAR","output":137},{"input":0,"interpolation":"LINEAR","output":138},{"input":0,"interpolation":"LINEAR","output":139},{"input":0,"interpolation":"LINEAR","output":140},{"input":0,"interpolation":"LINEAR","output":141},{"input":0,"interpolation":"LINEAR","output":142},{"input":0,"interpolation":"LINEAR","output":143},{"input":0,"interpolation":"LINEAR","output":144},{"input":0,"interpolation":"LINEAR","output":145},{"input":0,"interpolation":"LINEAR","output":146},{"input":0,"interpolation":"LINEAR","output":147},{"input":0,"interpolation":"LINEAR","output":148},{"input":0,"interpolation":"LINEAR","output":149},{"input":0,"interpolation":"LINEAR","output":150},{"input":0,"interpolation":"LINEAR","output":151},{"input":0,"interpolation":"LINEAR","output":152},{"input":0,"interpolation":"LINEAR","output":153}]}],"accessors":[{"bufferView":0,"componentType":5126,"count":33,"max":[1.0666666666666667],"min":[0],"type":"SCALAR"},{"bufferView":1,"componentType":5126,"count":33,"type":"VEC3"},{"bufferView":2,"componentType":5126,"count":33,"type":"VEC4"},{"bufferView":3,"componentType":5126,"count":33,"type":"VEC3"},{"bufferView":4,"componentType":5126,"count":33,"type":"VEC3"},{"bufferView":5,"componentType":5126,"count":33,"type":"VEC4"},{"bufferView":6,"componentType":5126,"count":33,"type":"VEC3"},{"bufferView":7,"componentType":5126,"count":33,"type":"VEC3"},{"bufferView":8,"componentType":5126,"count":33,"type":"VEC4"},{"bufferView":9,"componentType":5126,"count":33,"type":"VEC3"},{"bufferView":10,"componentType":5126,"count":33,"type":"VEC3"},{"bufferView":11,"componentType":5126,"count":33,"type":"VEC4"},{"bufferView":12,"componentType":5126,"count":33,"type":"VEC3"},{"bufferView":13,"componentType":5126,"count":33,"type":"VEC3"},{"bufferView":14,"componentType":5126,"count":33,"type":"VEC4"},{"bufferView":15,"componentType":5126,"count":33,"type":"VEC3"},{"bufferView":16,"componentType":5126,"count":33,"type":"VEC3"},{"bufferView":17,"componentType":5126,"count":33,"type":"VEC4"},{"bufferView":18,"componentType":5126,"count":33,"type":"VEC3"},{"bufferView":19,"componentType":5126,"count":33,"type":"VEC3"},{"bufferView":20,"componentType":5126,"count":33,"type":"VEC4"},{"bufferView":21,"componentType":5126,"count":33,"type":"VEC3"},{"bufferView":22,"componentType":5126,"count":33,"type":"VEC3"},{"bufferView":23,"componentType":5126,"count":33,"type":"VEC4"},{"bufferView":24,"componentType":5126,"count":33,"type":"VEC3"},{"bufferView":25,"componentType":5126,"count":33,"type":"VEC3"},{"bufferView":26,"componentType":5126,"count":33,"type":"VEC4"},{"bufferView":27,"componentType":5126,"count":33,"type":"VEC3"},{"bufferView":28,"componentType":5126,"count":33,"type":"VEC3"},{"bufferView":29,"componentType":5126,"count":33,"type":"VEC4"},{"bufferView":30,"componentType":5126,"count":33,"type":"VEC3"},{"bufferView":31,"componentType":5126,"count":33,"type":"VEC3"},{"bufferView":32,"componentType":5126,"count":33,"type":"VEC4"},{"bufferView":33,"componentType":5126,"count":33,"type":"VEC3"},{"bufferView":34,"componentType":5126,"count":33,"type":"VEC3"},{"bufferView":35,"componentType":5126,"count":33,"type":"VEC4"},{"bufferView":36,"componentType":5126,"count":33,"type":"VEC3"},{"bufferView":37,"componentType":5126,"count":33,"type":"VEC3"},{"bufferView":38,"componentType":5126,"count":33,"type":"VEC4"},{"bufferView":39,"componentType":5126,"count":33,"type":"VEC3"},{"bufferView":40,"componentType":5126,"count":33,"type":"VEC3"},{"bufferView":41,"componentType":5126,"count":33,"type":"VEC4"},{"bufferView":42,"componentType":5126,"count":33,"type":"VEC3"},{"bufferView":43,"componentType":5126,"count":33,"type":"VEC3"},{"bufferView":44,"componentType":5126,"count":33,"type":"VEC4"},{"bufferView":45,"componentType":5126,"count":33,"type":"VEC3"},{"bufferView":46,"componentType":5126,"count":33,"type":"VEC3"},{"bufferView":47,"componentType":5126,"count":33,"type":"VEC4"},{"bufferView":48,"componentType":5126,"count":33,"type":"VEC3"},{"bufferView":49,"componentType":5126,"count":33,"type":"VEC3"},{"bufferView":50,"componentType":5126,"count":33,"type":"VEC4"},{"bufferView":51,"componentType":5126,"count":33,"type":"VEC3"},{"bufferView":52,"componentType":5126,"count":33,"type":"VEC3"},{"bufferView":53,"componentType":5126,"count":33,"type":"VEC4"},{"bufferView":54,"componentType":5126,"count":33,"type":"VEC3"},{"bufferView":55,"componentType":5126,"count":33,"type":"VEC3"},{"bufferView":56,"componentType":5126,"count":33,"type":"VEC4"},{"bufferView":57,"componentType":5126,"count":33,"type":"VEC3"},{"bufferView":58,"componentType":5126,"count":33,"type":"VEC3"},{"bufferView":59,"componentType":5126,"count":33,"type":"VEC4"},{"bufferView":60,"componentType":5126,"count":33,"type":"VEC3"},{"bufferView":61,"componentType":5126,"count":33,"type":"VEC3"},{"bufferView":62,"componentType":5126,"count":33,"type":"VEC4"},{"bufferView":63,"componentType":5126,"count":33,"type":"VEC3"},{"bufferView":64,"componentType":5126,"count":33,"type":"VEC3"},{"bufferView":65,"componentType":5126,"count":33,"type":"VEC4"},{"bufferView":66,"componentType":5126,"count":33,"type":"VEC3"},{"bufferView":67,"componentType":5126,"count":33,"type":"VEC3"},{"bufferView":68,"componentType":5126,"count":33,"type":"VEC4"},{"bufferView":69,"componentType":5126,"count":33,"type":"VEC3"},{"bufferView":70,"componentType":5126,"count":33,"type":"VEC3"},{"bufferView":71,"componentType":5126,"count":33,"type":"VEC4"},{"bufferView":72,"componentType":5126,"count":33,"type":"VEC3"},{"bufferView":73,"componentType":5126,"count":33,"type":"VEC3"},{"bufferView":74,"componentType":5126,"count":33,"type":"VEC4"},{"bufferView":75,"componentType":5126,"count":33,"type":"VEC3"},{"bufferView":76,"componentType":5126,"count":33,"type":"VEC3"},{"bufferView":77,"componentType":5126,"count":33,"type":"VEC4"},{"bufferView":78,"componentType":5126,"count":33,"type":"VEC3"},{"bufferView":79,"componentType":5126,"count":33,"type":"VEC3"},{"bufferView":80,"componentType":5126,"count":33,"type":"VEC4"},{"bufferView":81,"componentType":5126,"count":33,"type":"VEC3"},{"bufferView":82,"componentType":5126,"count":33,"type":"VEC3"},{"bufferView":83,"componentType":5126,"count":33,"type":"VEC4"},{"bufferView":84,"componentType":5126,"count":33,"type":"VEC3"},{"bufferView":85,"componentType":5126,"count":33,"type":"VEC3"},{"bufferView":86,"componentType":5126,"count":33,"type":"VEC4"},{"bufferView":87,"componentType":5126,"count":33,"type":"VEC3"},{"bufferView":88,"componentType":5126,"count":33,"type":"VEC3"},{"bufferView":89,"componentType":5126,"count":33,"type":"VEC4"},{"bufferView":90,"componentType":5126,"count":33,"type":"VEC3"},{"bufferView":91,"componentType":5126,"count":33,"type":"VEC3"},{"bufferView":92,"componentType":5126,"count":33,"type":"VEC4"},{"bufferView":93,"componentType":5126,"count":33,"type":"VEC3"},{"bufferView":94,"componentType":5126,"count":33,"type":"VEC3"},{"bufferView":95,"componentType":5126,"count":33,"type":"VEC4"},{"bufferView":96,"componentType":5126,"count":33,"type":"VEC3"},{"bufferView":97,"componentType":5126,"count":33,"type":"VEC3"},{"bufferView":98,"componentType":5126,"count":33,"type":"VEC4"},{"bufferView":99,"componentType":5126,"count":33,"type":"VEC3"},{"bufferView":100,"componentType":5126,"count":33,"type":"VEC3"},{"bufferView":101,"componentType":5126,"count":33,"type":"VEC4"},{"bufferView":102,"componentType":5126,"count":33,"type":"VEC3"},{"bufferView":103,"componentType":5126,"count":33,"type":"VEC3"},{"bufferView":104,"componentType":5126,"count":33,"type":"VEC4"},{"bufferView":105,"componentType":5126,"count":33,"type":"VEC3"},{"bufferView":106,"componentType":5126,"count":33,"type":"VEC3"},{"bufferView":107,"componentType":5126,"count":33,"type":"VEC4"},{"bufferView":108,"componentType":5126,"count":33,"type":"VEC3"},{"bufferView":109,"componentType":5126,"count":33,"type":"VEC3"},{"bufferView":110,"componentType":5126,"count":33,"type":"VEC4"},{"bufferView":111,"componentType":5126,"count":33,"type":"VEC3"},{"bufferView":112,"componentType":5126,"count":33,"type":"VEC3"},{"bufferView":113,"componentType":5126,"count":33,"type":"VEC4"},{"bufferView":114,"componentType":5126,"count":33,"type":"VEC3"},{"bufferView":115,"componentType":5126,"count":33,"type":"VEC3"},{"bufferView":116,"componentType":5126,"count":33,"type":"VEC4"},{"bufferView":117,"componentType":5126,"count":33,"type":"VEC3"},{"bufferView":118,"componentType":5126,"count":33,"type":"VEC3"},{"bufferView":119,"componentType":5126,"count":33,"type":"VEC4"},{"bufferView":120,"componentType":5126,"count":33,"type":"VEC3"},{"bufferView":121,"componentType":5126,"count":33,"type":"VEC3"},{"bufferView":122,"componentType":5126,"count":33,"type":"VEC4"},{"bufferView":123,"componentType":5126,"count":33,"type":"VEC3"},{"bufferView":124,"componentType":5126,"count":33,"type":"VEC3"},{"bufferView":125,"componentType":5126,"count":33,"type":"VEC4"},{"bufferView":126,"componentType":5126,"count":33,"type":"VEC3"},{"bufferView":127,"componentType":5126,"count":33,"type":"VEC3"},{"bufferView":128,"componentType":5126,"count":33,"type":"VEC4"},{"bufferView":129,"componentType":5126,"count":33,"type":"VEC3"},{"bufferView":130,"componentType":5126,"count":33,"type":"VEC3"},{"bufferView":131,"componentType":5126,"count":33,"type":"VEC4"},{"bufferView":132,"componentType":5126,"count":33,"type":"VEC3"},{"bufferView":133,"componentType":5126,"count":33,"type":"VEC3"},{"bufferView":134,"componentType":5126,"count":33,"type":"VEC4"},{"bufferView":135,"componentType":5126,"count":33,"type":"VEC3"},{"bufferView":136,"componentType":5126,"count":33,"type":"VEC3"},{"bufferView":137,"componentType":5126,"count":33,"type":"VEC4"},{"bufferView":138,"componentType":5126,"count":33,"type":"VEC3"},{"bufferView":139,"componentType":5126,"count":33,"type":"VEC3"},{"bufferView":140,"componentType":5126,"count":33,"type":"VEC4"},{"bufferView":141,"componentType":5126,"count":33,"type":"VEC3"},{"bufferView":142,"componentType":5126,"count":33,"type":"VEC3"},{"bufferView":143,"componentType":5126,"count":33,"type":"VEC4"},{"bufferView":144,"componentType":5126,"count":33,"type":"VEC3"},{"bufferView":145,"componentType":5126,"count":33,"type":"VEC3"},{"bufferView":146,"componentType":5126,"count":33,"type":"VEC4"},{"bufferView":147,"componentType":5126,"count":33,"type":"VEC3"},{"bufferView":148,"componentType":5126,"count":33,"type":"VEC3"},{"bufferView":149,"componentType":5126,"count":33,"type":"VEC4"},{"bufferView":150,"componentType":5126,"count":33,"type":"VEC3"},{"bufferView":151,"componentType":5126,"count":33,"type":"VEC3"},{"bufferView":152,"componentType":5126,"count":33,"type":"VEC4"},{"bufferView":153,"componentType":5126,"count":33,"type":"VEC3"}],"bufferViews":[{"buffer":0,"byteLength":132,"byteOffset":0},{"buffer":0,"byteLength":396,"byteOffset":132},{"buffer":0,"byteLength":528,"byteOffset":528},{"buffer":0,"byteLength":396,"byteOffset":1056},{"buffer":0,"byteLength":396,"byteOffset":1452},{"buffer":0,"byteLength":528,"byteOffset":1848},{"buffer":0,"byteLength":396,"byteOffset":2376},{"buffer":0,"byteLength":396,"byteOffset":2772},{"buffer":0,"byteLength":528,"byteOffset":3168},{"buffer":0,"byteLength":396,"byteOffset":3696},{"buffer":0,"byteLength":396,"byteOffset":4092},{"buffer":0,"byteLength":528,"byteOffset":4488},{"buffer":0,"byteLength":396,"byteOffset":5016},{"buffer":0,"byteLength":396,"byteOffset":5412},{"buffer":0,"byteLength":528,"byteOffset":5808},{"buffer":0,"byteLength":396,"byteOffset":6336},{"buffer":0,"byteLength":396,"byteOffset":6732},{"buffer":0,"byteLength":528,"byteOffset":7128},{"buffer":0,"byteLength":396,"byteOffset":7656},{"buffer":0,"byteLength":396,"byteOffset":8052},{"buffer":0,"byteLength":528,"byteOffset":8448},{"buffer":0,"byteLength":396,"byteOffset":8976},{"buffer":0,"byteLength":396,"byteOffset":9372},{"buffer":0,"byteLength":528,"byteOffset":9768},{"buffer":0,"byteLength":396,"byteOffset":10296},{"buffer":0,"byteLength":396,"byteOffset":10692},{"buffer":0,"byteLength":528,"byteOffset":11088},{"buffer":0,"byteLength":396,"byteOffset":11616},{"buffer":0,"byteLength":396,"byteOffset":12012},{"buffer":0,"byteLength":528,"byteOffset":12408},{"buffer":0,"byteLength":396,"byteOffset":12936},{"buffer":0,"byteLength":396,"byteOffset":13332},{"buffer":0,"byteLength":528,"byteOffset":13728},{"buffer":0,"byteLength":396,"byteOffset":14256},{"buffer":0,"byteLength":396,"byteOffset":14652},{"buffer":0,"byteLength":528,"byteOffset":15048},{"buffer":0,"byteLength":396,"byteOffset":15576},{"buffer":0,"byteLength":396,"byteOffset":15972},{"buffer":0,"byteLength":528,"byteOffset":16368},{"buffer":0,"byteLength":396,"byteOffset":16896},{"buffer":0,"byteLength":396,"byteOffset":17292},{"buffer":0,"byteLength":528,"byteOffset":17688},{"buffer":0,"byteLength":396,"byteOffset":18216},{"buffer":0,"byteLength":396,"byteOffset":18612},{"buffer":0,"byteLength":528,"byteOffset":19008},{"buffer":0,"byteLength":396,"byteOffset":19536},{"buffer":0,"byteLength":396,"byteOffset":19932},{"buffer":0,"byteLength":528,"byteOffset":20328},{"buffer":0,"byteLength":396,"byteOffset":20856},{"buffer":0,"byteLength":396,"byteOffset":21252},{"buffer":0,"byteLength":528,"byteOffset":21648},{"buffer":0,"byteLength":396,"byteOffset":22176},{"buffer":0,"byteLength":396,"byteOffset":22572},{"buffer":0,"byteLength":528,"byteOffset":22968},{"buffer":0,"byteLength":396,"byteOffset":23496},{"buffer":0,"byteLength":396,"byteOffset":23892},{"buffer":0,"byteLength":528,"byteOffset":24288},{"buffer":0,"byteLength":396,"byteOffset":24816},{"buffer":0,"byteLength":396,"byteOffset":25212},{"buffer":0,"byteLength":528,"byteOffset":25608},{"buffer":0,"byteLength":396,"byteOffset":26136},{"buffer":0,"byteLength":396,"byteOffset":26532},{"buffer":0,"byteLength":528,"byteOffset":26928},{"buffer":0,"byteLength":396,"byteOffset":27456},{"buffer":0,"byteLength":396,"byteOffset":27852},{"buffer":0,"byteLength":528,"byteOffset":28248},{"buffer":0,"byteLength":396,"byteOffset":28776},{"buffer":0,"byteLength":396,"byteOffset":29172},{"buffer":0,"byteLength":528,"byteOffset":29568},{"buffer":0,"byteLength":396,"byteOffset":30096},{"buffer":0,"byteLength":396,"byteOffset":30492},{"buffer":0,"byteLength":528,"byteOffset":30888},{"buffer":0,"byteLength":396,"byteOffset":31416},{"buffer":0,"byteLength":396,"byteOffset":31812},{"buffer":0,"byteLength":528,"byteOffset":32208},{"buffer":0,"byteLength":396,"byteOffset":32736},{"buffer":0,"byteLength":396,"byteOffset":33132},{"buffer":0,"byteLength":528,"byteOffset":33528},{"buffer":0,"byteLength":396,"byteOffset":34056},{"buffer":0,"byteLength":396,"byteOffset":34452},{"buffer":0,"byteLength":528,"byteOffset":34848},{"buffer":0,"byteLength":396,"byteOffset":35376},{"buffer":0,"byteLength":396,"byteOffset":35772},{"buffer":0,"byteLength":528,"byteOffset":36168},{"buffer":0,"byteLength":396,"byteOffset":36696},{"buffer":0,"byteLength":396,"byteOffset":37092},{"buffer":0,"byteLength":528,"byteOffset":37488},{"buffer":0,"byteLength":396,"byteOffset":38016},{"buffer":0,"byteLength":396,"byteOffset":38412},{"buffer":0,"byteLength":528,"byteOffset":38808},{"buffer":0,"byteLength":396,"byteOffset":39336},{"buffer":0,"byteLength":396,"byteOffset":39732},{"buffer":0,"byteLength":528,"byteOffset":40128},{"buffer":0,"byteLength":396,"byteOffset":40656},{"buffer":0,"byteLength":396,"byteOffset":41052},{"buffer":0,"byteLength":528,"byteOffset":41448},{"buffer":0,"byteLength":396,"byteOffset":41976},{"buffer":0,"byteLength":396,"byteOffset":42372},{"buffer":0,"byteLength":528,"byteOffset":42768},{"buffer":0,"byteLength":396,"byteOffset":43296},{"buffer":0,"byteLength":396,"byteOffset":43692},{"buffer":0,"byteLength":528,"byteOffset":44088},{"buffer":0,"byteLength":396,"byteOffset":44616},{"buffer":0,"byteLength":396,"byteOffset":45012},{"buffer":0,"byteLength":528,"byteOffset":45408},{"buffer":0,"byteLength":396,"byteOffset":45936},{"buffer":0,"byteLength":396,"byteOffset":46332},{"buffer":0,"byteLength":528,"byteOffset":46728},{"buffer":0,"byteLength":396,"byteOffset":47256},{"buffer":0,"byteLength":396,"byteOffset":47652},{"buffer":0,"byteLength":528,"byteOffset":48048},{"buffer":0,"byteLength":396,"byteOffset":48576},{"buffer":0,"byteLength":396,"byteOffset":48972},{"buffer":0,"byteLength":528,"byteOffset":49368},{"buffer":0,"byteLength":396,"byteOffset":49896},{"buffer":0,"byteLength":396,"byteOffset":50292},{"buffer":0,"byteLength":528,"byteOffset":50688},{"buffer":0,"byteLength":396,"byteOffset":51216},{"buffer":0,"byteLength":396,"byteOffset":51612},{"buffer":0,"byteLength":528,"byteOffset":52008},{"buffer":0,"byteLength":396,"byteOffset":52536},{"buffer":0,"byteLength":396,"byteOffset":52932},{"buffer":0,"byteLength":528,"byteOffset":53328},{"buffer":0,"byteLength":396,"byteOffset":53856},{"buffer":0,"byteLength":396,"byteOffset":54252},{"buffer":0,"byteLength":528,"byteOffset":54648},{"buffer":0,"byteLength":396,"byteOffset":55176},{"buffer":0,"byteLength":396,"byteOffset":55572},{"buffer":0,"byteLength":528,"byteOffset":55968},{"buffer":0,"byteLength":396,"byteOffset":56496},{"buffer":0,"byteLength":396,"byteOffset":56892},{"buffer":0,"byteLength":528,"byteOffset":57288},{"buffer":0,"byteLength":396,"byteOffset":57816},{"buffer":0,"byteLength":396,"byteOffset":58212},{"buffer":0,"byteLength":528,"byteOffset":58608},{"buffer":0,"byteLength":396,"byteOffset":59136},{"buffer":0,"byteLength":396,"byteOffset":59532},{"buffer":0,"byteLength":528,"byteOffset":59928},{"buffer":0,"byteLength":396,"byteOffset":60456},{"buffer":0,"byteLength":396,"byteOffset":60852},{"buffer":0,"byteLength":528,"byteOffset":61248},{"buffer":0,"byteLength":396,"byteOffset":61776},{"buffer":0,"byteLength":396,"byteOffset":62172},{"buffer":0,"byteLength":528,"byteOffset":62568},{"buffer":0,"byteLength":396,"byteOffset":63096},{"buffer":0,"byteLength":396,"byteOffset":63492},{"buffer":0,"byteLength":528,"byteOffset":63888},{"buffer":0,"byteLength":396,"byteOffset":64416},{"buffer":0,"byteLength":396,"byteOffset":64812},{"buffer":0,"byteLength":528,"byteOffset":65208},{"buffer":0,"byteLength":396,"byteOffset":65736},{"buffer":0,"byteLength":396,"byteOffset":66132},{"buffer":0,"byteLength":528,"byteOffset":66528},{"buffer":0,"byteLength":396,"byteOffset":67056}],"buffers":[{"byteLength":67452,"uri":"data:application/octet-stream;base64,"}]}
